# xmcd
# Track frame offsets:
# 150
# 13726
# 32260
# 54241
# 69850
# 91384
# 103767
# 117915
# 136900
# 154533
# 170217
# 186986
# 199852
# 215085
# 238570
# 258754
# 277888
#
# Disc length: 3974 seconds
# Revision: 0
# Processed by: cddbd v1.5.1PL0 Copyright (c) Steve Scherf et al.
# Submitted via: VisiTrax 2.9.10.228 - For more info visit www.synapsa.com
#
DISCID=e50f8411
DTITLE=McGraw, Tim - Country Karaoke Classics  CKC007
DYEAR=1900
DGENRE=Karaoke
TTITLE0=Something Like That
TTITLE1=Don't Take The Girl
TTITLE2=My Best Friend
TTITLE3=My Next 30 Years
TTITLE4=Everywhere
TTITLE5=Down On The Farm
TTITLE6=I Like It, I Love It
TTITLE7=She's My Kind Of Rain
TTITLE8=Grown Men Don't Cry
TTITLE9=Just To See You Smile
TTITLE10=It's Your Love
TTITLE11=Indian Outlaw
TTITLE12=Where The Green Grass Grows
TTITLE13=Tiny Dancer
TTITLE14=Angry All The Time
TTITLE15=Real Good Man
TTITLE16=Watch The Wind Blow By
EXTD=
EXTT0=
EXTT1=
EXTT2=
EXTT3=
EXTT4=
EXTT5=
EXTT6=
EXTT7=
EXTT8=
EXTT9=
EXTT10=
EXTT11=
EXTT12=
EXTT13=
EXTT14=
EXTT15=
EXTT16=
PLAYORDER=
